<?xml version="1.0" encoding="UTF-8"?>
<!DOCTYPE svg PUBLIC "-//W3C//DTD SVG 1.1//EN" "http://www.w3.org/Graphics/SVG/1.1/DTD/svg11.dtd">
<svg xmlns="http://www.w3.org/2000/svg" version="1.1" width="512px" height="512px" style="shape-rendering:geometricPrecision; text-rendering:geometricPrecision; image-rendering:optimizeQuality; fill-rule:evenodd; clip-rule:evenodd" xmlns:xlink="http://www.w3.org/1999/xlink">
<g><path style="opacity:1" fill="#959a88" d="M 232.5,-0.5 C 244.167,-0.5 255.833,-0.5 267.5,-0.5C 345.158,6.56049 403.658,43.5605 443,110.5C 469.074,159.321 475.741,210.654 463,264.5C 455.329,261.996 449.329,257.329 445,250.5C 444.257,248.559 444.424,246.726 445.5,245C 449.956,243.459 454.289,241.626 458.5,239.5C 459.614,238.277 459.781,236.944 459,235.5C 448.346,228.213 444.346,218.213 447,205.5C 446.275,204.941 445.442,204.608 444.5,204.5C 439.833,206.167 435.167,207.833 430.5,209.5C 428.575,209.41 427.408,208.41 427,206.5C 425.403,197.646 426.736,189.313 431,181.5C 434.667,177.833 438.333,174.167 442,170.5C 442.667,169.167 442.667,167.833 442,166.5C 427.167,157 412.333,147.5 397.5,138C 394.763,136.92 393.096,137.754 392.5,140.5C 394.066,144.693 394.732,149.026 394.5,153.5C 388.647,157.017 382.813,160.683 377,164.5C 376.826,169.351 376.326,174.018 375.5,178.5C 374.833,178.5 374.5,178.167 374.5,177.5C 383.339,128.186 369.673,86.3531 333.5,52C 296.135,23.5333 255.135,17.0333 210.5,32.5C 198.56,26.8651 186.56,21.1984 174.5,15.5C 179.703,13.0426 185.037,10.8759 190.5,9C 200.969,6.48723 211.303,3.98723 221.5,1.5C 225.312,0.973568 228.979,0.306901 232.5,-0.5 Z"/></g>
<g><path style="opacity:0.991" fill="#c5c4a5" d="M 267.5,-0.5 C 271.167,-0.5 274.833,-0.5 278.5,-0.5C 368.144,10.3879 435.644,54.7213 481,132.5C 497.695,163.971 507.861,197.304 511.5,232.5C 511.5,247.833 511.5,263.167 511.5,278.5C 504.924,342.315 478.591,396.315 432.5,440.5C 422.347,416.498 406.347,397.498 384.5,383.5C 385.552,383.649 386.552,383.483 387.5,383C 414.922,361.611 435.422,335.111 449,303.5C 443.142,300.883 436.975,299.883 430.5,300.5C 431.733,275.762 420.733,259.429 397.5,251.5C 399.829,247.845 401.163,243.845 401.5,239.5C 402.83,209.664 402.83,179.664 401.5,149.5C 400.893,149.624 400.56,149.957 400.5,150.5C 398.5,151.5 396.5,152.5 394.5,153.5C 394.732,149.026 394.066,144.693 392.5,140.5C 393.096,137.754 394.763,136.92 397.5,138C 412.333,147.5 427.167,157 442,166.5C 442.667,167.833 442.667,169.167 442,170.5C 438.333,174.167 434.667,177.833 431,181.5C 426.736,189.313 425.403,197.646 427,206.5C 427.408,208.41 428.575,209.41 430.5,209.5C 435.167,207.833 439.833,206.167 444.5,204.5C 445.442,204.608 446.275,204.941 447,205.5C 444.346,218.213 448.346,228.213 459,235.5C 459.781,236.944 459.614,238.277 458.5,239.5C 454.289,241.626 449.956,243.459 445.5,245C 444.424,246.726 444.257,248.559 445,250.5C 449.329,257.329 455.329,261.996 463,264.5C 475.741,210.654 469.074,159.321 443,110.5C 403.658,43.5605 345.158,6.56049 267.5,-0.5 Z"/></g>
<g><path style="opacity:0.991" fill="#c5c4a5" d="M 221.5,1.5 C 211.303,3.98723 200.969,6.48723 190.5,9C 185.037,10.8759 179.703,13.0426 174.5,15.5C 186.56,21.1984 198.56,26.8651 210.5,32.5C 192.015,40.7441 176.015,52.4108 162.5,67.5C 144.447,71.0511 132.947,81.7177 128,99.5C 127.457,106.219 127.457,112.886 128,119.5C 122.441,96.5999 107.941,84.7666 84.5,84C 45.5894,136.157 32.4228,194.324 45,258.5C 47.1853,267.239 49.6853,275.905 52.5,284.5C 58.2705,286.225 63.6039,285.391 68.5,282C 65.1667,275.667 61.8333,269.333 58.5,263C 74.6095,267.446 85.9428,261.946 92.5,246.5C 95.9857,252.802 99.4857,259.135 103,265.5C 107.998,262.324 112.498,258.658 116.5,254.5C 121.785,259.634 128.119,261.634 135.5,260.5C 135.5,261.833 135.5,263.167 135.5,264.5C 128.459,266.556 122.459,270.222 117.5,275.5C 117.565,275.062 117.399,274.728 117,274.5C 103.405,283.427 92.5721,294.927 84.5,309C 85.305,310.113 85.9717,311.279 86.5,312.5C 79.9535,312.225 73.4535,312.558 67,313.5C 66.5,313.833 66,314.167 65.5,314.5C 80.106,342.105 99.7727,365.439 124.5,384.5C 103.716,398.624 88.3823,417.291 78.5,440.5C 32.4092,396.315 6.07588,342.315 -0.5,278.5C -0.5,263.167 -0.5,247.833 -0.5,232.5C 5.02631,180.957 23.693,134.791 55.5,94C 46.8289,80.0012 34.1622,74.0012 17.5,76C 16.4464,74.6124 16.2797,73.1124 17,71.5C 28.8177,58.0483 40.9844,44.8816 53.5,32C 55.1667,31.3333 56.8333,31.3333 58.5,32C 63.414,43.2489 71.7473,50.5822 83.5,54C 86.5,54.6667 89.5,54.6667 92.5,54C 93.3567,53.3109 94.0233,52.4776 94.5,51.5C 92.6384,46.2252 91.9718,40.8919 92.5,35.5C 93.3333,35.1667 94.1667,34.8333 95,34.5C 106.145,39.5876 115.979,37.7543 124.5,29C 127.318,28.1605 129.484,28.9938 131,31.5C 139.141,26.5126 147.641,22.1793 156.5,18.5C 157.273,16.187 157.94,13.8537 158.5,11.5C 162.747,10.2699 166.747,10.9365 170.5,13.5C 187.026,7.45178 204.026,3.45178 221.5,1.5 Z"/></g>
<g><path style="opacity:1" fill="#969b89" d="M 155.5,23.5 C 156.097,23.7352 156.43,24.2352 156.5,25C 152.558,36.2827 144.892,43.2827 133.5,46C 131.718,43.7569 131.218,41.2569 132,38.5C 139.74,33.2423 147.573,28.2423 155.5,23.5 Z"/></g>
<g><path style="opacity:1" fill="#d6d5bc" d="M 374.5,177.5 C 361.017,170.569 352.851,159.569 350,144.5C 352.778,123.389 346.611,105.555 331.5,91C 311.22,77.4998 291.72,78.3331 273,93.5C 263.456,104.323 259.456,116.99 261,131.5C 257.333,136.833 253.667,136.833 250,131.5C 251.681,105.666 240.181,89.1659 215.5,82C 203.905,79.8041 193.239,81.9708 183.5,88.5C 174.135,94.5476 167.635,102.881 164,113.5C 162.13,125.096 160.796,136.763 160,148.5C 156.698,161.957 148.864,171.624 136.5,177.5C 135.339,162.005 135.172,146.339 136,130.5C 138.525,106.733 147.359,85.733 162.5,67.5C 176.015,52.4108 192.015,40.7441 210.5,32.5C 255.135,17.0333 296.135,23.5333 333.5,52C 369.673,86.3531 383.339,128.186 374.5,177.5 Z"/></g>
<g><path style="opacity:1" fill="#959a88" d="M 162.5,67.5 C 147.359,85.733 138.525,106.733 136,130.5C 135.172,146.339 135.339,162.005 136.5,177.5C 136.44,178.043 136.107,178.376 135.5,178.5C 134.672,173.868 134.172,169.202 134,164.5C 126.541,159.209 118.708,154.542 110.5,150.5C 110.44,149.957 110.107,149.624 109.5,149.5C 108.17,179.664 108.17,209.664 109.5,239.5C 109.958,245.413 112.291,250.413 116.5,254.5C 112.498,258.658 107.998,262.324 103,265.5C 99.4857,259.135 95.9857,252.802 92.5,246.5C 85.9428,261.946 74.6095,267.446 58.5,263C 61.8333,269.333 65.1667,275.667 68.5,282C 63.6039,285.391 58.2705,286.225 52.5,284.5C 49.6853,275.905 47.1853,267.239 45,258.5C 32.4228,194.324 45.5894,136.157 84.5,84C 107.941,84.7666 122.441,96.5999 128,119.5C 127.457,112.886 127.457,106.219 128,99.5C 132.947,81.7177 144.447,71.0511 162.5,67.5 Z"/></g>
<g><path style="opacity:1" fill="#121212" d="M 374.5,177.5 C 374.5,178.167 374.833,178.5 375.5,178.5C 376.79,205.778 376.79,233.111 375.5,260.5C 375.5,261.5 375.5,262.5 375.5,263.5C 368.183,304.834 346.183,335.501 309.5,355.5C 297.731,360.479 285.564,364.145 273,366.5C 235.744,360.222 207.078,341.222 187,309.5C 177.087,292.096 171.42,273.429 170,253.5C 169.17,230.663 169.337,207.996 170.5,185.5C 188.611,190.276 206.944,194.276 225.5,197.5C 233.711,196.526 239.544,199.859 243,207.5C 243.076,217.573 243.742,227.573 245,237.5C 247.399,241.449 250.899,243.449 255.5,243.5C 261.368,243.803 265.202,241.137 267,235.5C 267.333,226.167 267.667,216.833 268,207.5C 271.456,199.859 277.289,196.526 285.5,197.5C 302.441,193.812 319.441,190.312 336.5,187C 342.532,185.047 344.032,181.213 341,175.5C 337.29,169.913 333.457,164.413 329.5,159C 327.5,158.333 325.5,158.333 323.5,159C 317.948,162.725 312.282,166.225 306.5,169.5C 272.5,169.5 238.5,169.5 204.5,169.5C 198.718,166.225 193.052,162.725 187.5,159C 185.5,158.333 183.5,158.333 181.5,159C 177.25,164.402 173.25,169.902 169.5,175.5C 169.134,159.464 169.634,143.464 171,127.5C 172.672,113.652 176.839,100.652 183.5,88.5C 193.239,81.9708 203.905,79.8041 215.5,82C 240.181,89.1659 251.681,105.666 250,131.5C 253.667,136.833 257.333,136.833 261,131.5C 259.456,116.99 263.456,104.323 273,93.5C 291.72,78.3331 311.22,77.4998 331.5,91C 346.611,105.555 352.778,123.389 350,144.5C 352.851,159.569 361.017,170.569 374.5,177.5 Z"/></g>
<g><path style="opacity:1" fill="#333333" d="M 183.5,88.5 C 176.839,100.652 172.672,113.652 171,127.5C 169.634,143.464 169.134,159.464 169.5,175.5C 167.882,179.102 168.215,182.435 170.5,185.5C 169.337,207.996 169.17,230.663 170,253.5C 171.42,273.429 177.087,292.096 187,309.5C 207.078,341.222 235.744,360.222 273,366.5C 285.564,364.145 297.731,360.479 309.5,355.5C 311.845,388.27 297.511,409.437 266.5,419C 241.186,422.756 221.686,413.923 208,392.5C 202.815,380.397 200.315,367.73 200.5,354.5C 164.626,334.749 142.959,304.749 135.5,264.5C 135.5,263.167 135.5,261.833 135.5,260.5C 128.119,261.634 121.785,259.634 116.5,254.5C 112.291,250.413 109.958,245.413 109.5,239.5C 109.169,209.662 109.502,179.995 110.5,150.5C 118.708,154.542 126.541,159.209 134,164.5C 134.172,169.202 134.672,173.868 135.5,178.5C 136.107,178.376 136.44,178.043 136.5,177.5C 148.864,171.624 156.698,161.957 160,148.5C 160.796,136.763 162.13,125.096 164,113.5C 167.635,102.881 174.135,94.5476 183.5,88.5 Z"/></g>
<g><path style="opacity:1" fill="#52544e" d="M 110.5,150.5 C 109.502,179.995 109.169,209.662 109.5,239.5C 108.17,209.664 108.17,179.664 109.5,149.5C 110.107,149.624 110.44,149.957 110.5,150.5 Z"/></g>
<g><path style="opacity:1" fill="#66655b" d="M 400.5,150.5 C 400.56,149.957 400.893,149.624 401.5,149.5C 402.83,179.664 402.83,209.664 401.5,239.5C 401.831,209.662 401.498,179.995 400.5,150.5 Z"/></g>
<g><path style="opacity:1" fill="#333333" d="M 400.5,150.5 C 401.498,179.995 401.831,209.662 401.5,239.5C 401.163,243.845 399.829,247.845 397.5,251.5C 391.805,258.343 384.472,261.343 375.5,260.5C 376.79,233.111 376.79,205.778 375.5,178.5C 376.326,174.018 376.826,169.351 377,164.5C 382.813,160.683 388.647,157.017 394.5,153.5C 396.5,152.5 398.5,151.5 400.5,150.5 Z"/></g>
<g><path style="opacity:1" fill="#c2c1a3" d="M 204.5,169.5 C 212.265,174.892 220.265,180.058 228.5,185C 230,186.5 231.5,188 233,189.5C 233.779,195.222 231.279,197.888 225.5,197.5C 206.944,194.276 188.611,190.276 170.5,185.5C 168.215,182.435 167.882,179.102 169.5,175.5C 173.25,169.902 177.25,164.402 181.5,159C 183.5,158.333 185.5,158.333 187.5,159C 193.052,162.725 198.718,166.225 204.5,169.5 Z"/></g>
<g><path style="opacity:1" fill="#c3c2a3" d="M 285.5,197.5 C 279.721,197.888 277.221,195.222 278,189.5C 279.5,188 281,186.5 282.5,185C 290.735,180.058 298.735,174.892 306.5,169.5C 312.282,166.225 317.948,162.725 323.5,159C 325.5,158.333 327.5,158.333 329.5,159C 333.457,164.413 337.29,169.913 341,175.5C 344.032,181.213 342.532,185.047 336.5,187C 319.441,190.312 302.441,193.812 285.5,197.5 Z"/></g>
<g><path style="opacity:1" fill="#333333" d="M 204.5,169.5 C 238.5,169.5 272.5,169.5 306.5,169.5C 298.735,174.892 290.735,180.058 282.5,185C 281,186.5 279.5,188 278,189.5C 277.221,195.222 279.721,197.888 285.5,197.5C 277.289,196.526 271.456,199.859 268,207.5C 267.667,216.833 267.333,226.167 267,235.5C 265.202,241.137 261.368,243.803 255.5,243.5C 250.899,243.449 247.399,241.449 245,237.5C 243.742,227.573 243.076,217.573 243,207.5C 239.544,199.859 233.711,196.526 225.5,197.5C 231.279,197.888 233.779,195.222 233,189.5C 231.5,188 230,186.5 228.5,185C 220.265,180.058 212.265,174.892 204.5,169.5 Z"/></g>
<g><path style="opacity:1" fill="#c1c0a2" d="M 202.5,202.5 C 204.293,211.671 208.959,213.671 216.5,208.5C 217.893,215.07 217.726,221.737 216,228.5C 208.358,236.969 201.692,236.302 196,226.5C 195.168,217.814 195.335,209.147 196.5,200.5C 198.45,201.372 200.45,202.039 202.5,202.5 Z"/></g>
<g><path style="opacity:1" fill="#808275" d="M 315.5,206.5 C 314.045,209.273 311.712,210.94 308.5,211.5C 305.199,210.159 302.199,208.492 299.5,206.5C 304.537,203.929 309.871,201.929 315.5,200.5C 315.5,202.5 315.5,204.5 315.5,206.5 Z"/></g>
<g><path style="opacity:1" fill="#818376" d="M 202.5,202.5 C 207.23,204.537 211.897,206.537 216.5,208.5C 208.959,213.671 204.293,211.671 202.5,202.5 Z"/></g>
<g><path style="opacity:1" fill="#c1c0a2" d="M 299.5,206.5 C 302.199,208.492 305.199,210.159 308.5,211.5C 311.712,210.94 314.045,209.273 315.5,206.5C 315.666,213.508 315.5,220.508 315,227.5C 311.364,233.177 306.197,235.01 299.5,233C 296.865,231.039 295.031,228.539 294,225.5C 293.333,219.833 293.333,214.167 294,208.5C 295.584,207.139 297.418,206.472 299.5,206.5 Z"/></g>
<g><path style="opacity:1" fill="#838578" d="M 199.5,217.5 C 206.564,217.352 207.897,219.852 203.5,225C 198.632,224.711 197.299,222.211 199.5,217.5 Z"/></g>
<g><path style="opacity:1" fill="#848679" d="M 299.5,216.5 C 304.266,217.158 305.6,219.658 303.5,224C 297.906,225.913 295.739,224.08 297,218.5C 297.995,217.934 298.828,217.267 299.5,216.5 Z"/></g>
<g><path style="opacity:1" fill="#959a88" d="M 397.5,251.5 C 420.733,259.429 431.733,275.762 430.5,300.5C 436.975,299.883 443.142,300.883 449,303.5C 435.422,335.111 414.922,361.611 387.5,383C 386.552,383.483 385.552,383.649 384.5,383.5C 375.892,379.03 367.225,374.863 358.5,371C 377.106,356.067 395.439,340.734 413.5,325C 418.808,320.036 423.142,314.369 426.5,308C 417.611,292.277 405.278,280.111 389.5,271.5C 384.833,268.833 380.167,266.167 375.5,263.5C 375.5,262.5 375.5,261.5 375.5,260.5C 384.472,261.343 391.805,258.343 397.5,251.5 Z"/></g>
<g><path style="opacity:1" fill="#c2c2a3" d="M 217.5,276.5 C 218.668,281.836 220.668,286.836 223.5,291.5C 225.787,286.596 227.787,281.596 229.5,276.5C 230.103,273.692 231.103,271.026 232.5,268.5C 239.729,270.009 247.063,270.676 254.5,270.5C 262.917,270.609 271.251,269.943 279.5,268.5C 279.963,271.221 280.629,273.888 281.5,276.5C 283.215,281.6 285.215,286.6 287.5,291.5C 290.331,286.837 292.331,281.837 293.5,276.5C 295.064,272.326 295.731,267.993 295.5,263.5C 301.03,262.1 306.364,260.1 311.5,257.5C 311.745,277.342 303.745,293.009 287.5,304.5C 273.274,294.619 257.607,291.786 240.5,296C 234.214,297.81 228.547,300.643 223.5,304.5C 207.255,293.009 199.255,277.342 199.5,257.5C 204.217,260.293 209.217,262.293 214.5,263.5C 215.343,267.873 216.343,272.207 217.5,276.5 Z"/></g>
<g><path style="opacity:1" fill="#289b44" d="M 375.5,263.5 C 380.167,266.167 384.833,268.833 389.5,271.5C 397.281,279.802 402.781,289.469 406,300.5C 407.781,315.432 402.614,327.266 390.5,336C 376.664,340.583 363.997,347.25 352.5,356C 320.167,386.5 287.833,417 255.5,447.5C 222.984,416.484 190.318,385.65 157.5,355C 146.169,346.834 133.835,340.5 120.5,336C 105.97,325.075 101.47,310.908 107,293.5C 110.259,287.308 113.759,281.308 117.5,275.5C 122.459,270.222 128.459,266.556 135.5,264.5C 142.959,304.749 164.626,334.749 200.5,354.5C 200.315,367.73 202.815,380.397 208,392.5C 221.686,413.923 241.186,422.756 266.5,419C 297.511,409.437 311.845,388.27 309.5,355.5C 346.183,335.501 368.183,304.834 375.5,263.5 Z"/></g>
<g><path style="opacity:1" fill="#959a88" d="M 86.5,312.5 C 92.6268,320.461 99.6268,327.627 107.5,334C 122.333,346.167 137.167,358.333 152,370.5C 143.21,375.148 134.043,379.815 124.5,384.5C 99.7727,365.439 80.106,342.105 65.5,314.5C 66,314.167 66.5,313.833 67,313.5C 73.4535,312.558 79.9535,312.225 86.5,312.5 Z"/></g>
<g><path style="opacity:1" fill="#d6d5bc" d="M 389.5,271.5 C 405.278,280.111 417.611,292.277 426.5,308C 423.142,314.369 418.808,320.036 413.5,325C 395.439,340.734 377.106,356.067 358.5,371C 367.225,374.863 375.892,379.03 384.5,383.5C 406.347,397.498 422.347,416.498 432.5,440.5C 389.509,481.849 338.176,505.516 278.5,511.5C 263.167,511.5 247.833,511.5 232.5,511.5C 177.302,505.729 128.635,484.896 86.5,449C 83.6286,446.297 80.9619,443.464 78.5,440.5C 88.3823,417.291 103.716,398.624 124.5,384.5C 134.043,379.815 143.21,375.148 152,370.5C 137.167,358.333 122.333,346.167 107.5,334C 99.6268,327.627 92.6268,320.461 86.5,312.5C 85.9717,311.279 85.305,310.113 84.5,309C 92.5721,294.927 103.405,283.427 117,274.5C 117.399,274.728 117.565,275.062 117.5,275.5C 113.759,281.308 110.259,287.308 107,293.5C 101.47,310.908 105.97,325.075 120.5,336C 133.835,340.5 146.169,346.834 157.5,355C 190.318,385.65 222.984,416.484 255.5,447.5C 287.833,417 320.167,386.5 352.5,356C 363.997,347.25 376.664,340.583 390.5,336C 402.614,327.266 407.781,315.432 406,300.5C 402.781,289.469 397.281,279.802 389.5,271.5 Z"/></g>
<g><path style="opacity:1" fill="#313131" d="M 239.5,325.5 C 249.839,325.334 260.172,325.5 270.5,326C 274.424,328.818 274.424,331.818 270.5,335C 260.5,335.667 250.5,335.667 240.5,335C 236.956,332.127 236.623,328.96 239.5,325.5 Z"/></g>
<g><path style="opacity:1" fill="#1b843e" d="M 287.5,304.5 C 266.148,317.796 244.815,317.796 223.5,304.5C 228.547,300.643 234.214,297.81 240.5,296C 257.607,291.786 273.274,294.619 287.5,304.5 Z"/></g>
<g><path style="opacity:1" fill="#1f7f3d" d="M 281.5,276.5 C 285.5,276.5 289.5,276.5 293.5,276.5C 292.331,281.837 290.331,286.837 287.5,291.5C 285.215,286.6 283.215,281.6 281.5,276.5 Z"/></g>
<g><path style="opacity:1" fill="#1f7f3d" d="M 217.5,276.5 C 221.5,276.5 225.5,276.5 229.5,276.5C 227.787,281.596 225.787,286.596 223.5,291.5C 220.668,286.836 218.668,281.836 217.5,276.5 Z"/></g>
<g><path style="opacity:1" fill="#1c853f" d="M 206.5,440.5 C 208.857,440.337 211.19,440.503 213.5,441C 227.215,446.238 241.049,451.071 255,455.5C 268.951,451.071 282.785,446.238 296.5,441C 301.937,439.345 306.103,440.845 309,445.5C 309.667,455.167 309.667,464.833 309,474.5C 307.667,478.592 304.833,480.925 300.5,481.5C 285.592,475.878 270.592,470.545 255.5,465.5C 240.999,470.167 226.665,475.334 212.5,481C 207.36,481.512 203.86,479.345 202,474.5C 201.333,464.833 201.333,455.167 202,445.5C 203.059,443.341 204.559,441.674 206.5,440.5 Z"/></g>
</svg>
